<svg id="Capa_1" enable-background="new 0 0 512 512" height="512" viewBox="0 0 512 512" width="512" xmlns="http://www.w3.org/2000/svg"><g><g><path d="m512 256c0 141.385-114.615 256-256 256s-256-114.615-256-256c0-125 114.615-256 256-256l106 154z" fill="#e58d90"/><g fill="#fbf3db"><g><path d="m190 162-112 179 45 25 110-177z"/><path d="m96 175 161 139-34 39-160-143z"/></g><path d="m346 169c-48.049 0-87 38.951-87 87s38.951 87 87 87 87-38.951 87-87-38.951-87-87-87zm0 133c-26.51 0-48-20.595-48-46s21.49-46 48-46 48 20.595 48 46-21.49 46-48 46z"/></g></g><path d="m229.863 1.498c-4.731 51.217-7.256 167.108 56.137 230.502 62.427 62.427 173.501 56.404 224.731 49.583.835-8.416 1.269-16.948 1.269-25.583l-151-94-105-162c-8.824 0-17.543.511-26.137 1.498z" fill="#913b35"/><path d="m256 0s.5 135.5 61 196 195 60 195 60z" fill="#fbf3db"/></g></svg>